<svg width="15" height="15" viewBox="0 0 15 15" fill="none" xmlns="http://www.w3.org/2000/svg">
<path d="M14.4228 7.06541C15.5301 6.22783 14.9378 4.46283 13.5493 4.46283H11.0371C10.4022 4.46283 9.84141 4.04919 9.65388 3.44262L8.90498 1.02025C8.48444 -0.340025 6.55902 -0.340025 6.13847 1.02025L5.38958 3.44262C5.20205 4.04919 4.64122 4.46283 4.00632 4.46283H1.45069C0.0667575 4.46283 -0.528413 6.21841 0.570196 7.06003L2.75901 8.73684C3.23903 9.10457 3.43997 9.73188 3.26294 10.3101L2.46765 12.9075C2.05522 14.2545 3.61425 15.3374 4.73256 14.4807L6.64124 13.0185C7.16077 12.6205 7.88269 12.6205 8.40222 13.0185L10.294 14.4678C11.4139 15.3257 12.9745 14.2386 12.5578 12.8908L11.7515 10.2827C11.5715 9.70052 11.7753 9.06794 12.2613 8.70033L14.4228 7.06541Z" fill="#FFAD33"/>
</svg>
