<svg width="15" height="15" viewBox="0 0 15 15" fill="none" xmlns="http://www.w3.org/2000/svg">
<path opacity="0.25" d="M14.4227 7.06539C15.5301 6.22782 14.9377 4.46282 13.5493 4.46282H11.0371C10.4022 4.46282 9.84139 4.04918 9.65386 3.44261L8.90497 1.02025C8.48443 -0.340024 6.559 -0.340025 6.13846 1.02025L5.38956 3.44261C5.20204 4.04918 4.64121 4.46282 4.00631 4.46282H1.45068C0.0667573 4.46282 -0.528412 6.2184 0.570194 7.06002L2.75901 8.73682C3.23903 9.10455 3.43996 9.73186 3.26293 10.3101L2.46765 12.9075C2.05521 14.2545 3.61425 15.3374 4.73255 14.4807L6.64122 13.0185C7.16075 12.6205 7.88267 12.6205 8.4022 13.0185L10.294 14.4678C11.4139 15.3257 12.9745 14.2386 12.5578 12.8908L11.7515 10.2827C11.5715 9.7005 11.7753 9.06793 12.2613 8.70031L14.4227 7.06539Z" fill="black"/>
</svg>
